<?xml version="1.0" encoding="utf-8"?>
<!-- Generator: Adobe Illustrator 25.4.1, SVG Export Plug-In . SVG Version: 6.00 Build 0)  -->
<svg version="1.1" id="Layer_1" xmlns="http://www.w3.org/2000/svg" xmlns:xlink="http://www.w3.org/1999/xlink" x="0px" y="0px"
	 viewBox="0 0 69.19 49.79" style="enable-background:new 0 0 69.19 49.79;" xml:space="preserve">
<style type="text/css">
	.st0{fill:#105C6B;}
</style>
<path class="st0" d="M44.2,43.29c0,0.75-0.61,1.34-1.3,1.34H6.26c-0.73,0-1.3-0.63-1.3-1.34V5.65c-0.04-0.71,0.57-1.34,1.3-1.34
	h36.63c0.73,0,1.3,0.63,1.3,1.34v6.06h2.24V5.7c0-2.01-1.59-3.68-3.58-3.68H6.22c-1.95,0-3.54,1.63-3.54,3.68v37.64
	c0,2.01,1.59,3.68,3.58,3.68h36.63c1.95,0,3.58-1.63,3.58-3.68v-4.77H44.2V43.29z M46.94,30.73v-8.66h3.58v-2.13h-3.58v-4.06h-2.24
	v4.06h-2.52v2.13h2.52v8.66c0,2.01,1.59,3.68,3.58,3.68h2.69v-2.3h-2.69C47.51,32.06,46.94,31.48,46.94,30.73z M65.19,27.51
	c0.04-0.46,0.04-0.79,0.04-1c-0.04-1.38-0.33-2.59-0.9-3.64c-0.57-1.05-1.34-1.84-2.32-2.38c-0.98-0.54-2.12-0.84-3.42-0.84
	c-1.3,0-2.44,0.29-3.46,0.92c-1.02,0.63-1.79,1.46-2.36,2.59c-0.57,1.13-0.85,2.38-0.85,3.89c0,1.46,0.28,2.72,0.85,3.85
	c0.57,1.13,1.38,2.01,2.44,2.59c1.06,0.59,2.28,0.92,3.66,0.92c1.59,0,2.93-0.46,4.03-1.38c1.1-0.92,1.79-2.13,2.08-3.6h-2.28
	c-0.24,0.92-0.69,1.63-1.42,2.17c-0.73,0.54-1.55,0.79-2.56,0.79c-1.3,0-2.36-0.42-3.17-1.25c-0.81-0.84-1.22-1.97-1.26-3.39v-0.21
	h10.91V27.51z M55.83,22.78c0.81-0.71,1.75-1.09,2.81-1.09c1.18,0,2.2,0.33,2.97,1c0.77,0.67,1.22,1.63,1.34,2.84h-8.47
	C54.57,24.41,55.02,23.49,55.83,22.78z M41.6,34.2v-9.37c0-1.67-0.49-2.97-1.47-3.85c-0.98-0.88-2.36-1.34-4.15-1.34
	c-1.67,0-3.05,0.38-4.11,1.17c-1.06,0.79-1.67,1.88-1.83,3.3h2.24c0.16-0.75,0.53-1.34,1.18-1.76c0.65-0.46,1.42-0.67,2.4-0.67
	c1.1,0,1.95,0.25,2.56,0.79c0.61,0.54,0.94,1.25,0.94,2.22v0.96h-4.15c-1.83,0-3.22,0.38-4.19,1.17c-0.98,0.75-1.47,1.88-1.47,3.35
	c0,1.3,0.49,2.34,1.42,3.09c0.94,0.75,2.2,1.13,3.74,1.13c2.04,0,3.62-0.79,4.72-2.38v2.22h2.16V34.2z M39.32,28.34
	c0,1.21-0.41,2.22-1.18,2.97c-0.77,0.75-1.87,1.13-3.26,1.13c-0.94,0-1.67-0.21-2.24-0.67c-0.57-0.42-0.81-1-0.81-1.71
	c0-1.59,1.06-2.38,3.13-2.38h4.35V28.34z M28.7,14.62h-2.24v19.78h2.24V14.62z M21.2,31.81c-0.61,0.42-1.42,0.63-2.4,0.63
	c-1.14,0-2.04-0.29-2.73-0.84c-0.69-0.54-1.06-1.25-1.1-2.13h-2.24c0,1.55,0.57,2.76,1.71,3.64c1.14,0.88,2.56,1.3,4.44,1.3
	c1.02,0,1.95-0.17,2.81-0.54c0.85-0.38,1.51-0.88,1.99-1.55c0.49-0.67,0.73-1.42,0.73-2.3c0-1-0.24-1.8-0.73-2.38
	c-0.49-0.59-1.14-1-1.91-1.25c-0.81-0.25-1.83-0.46-3.05-0.63c-0.9-0.13-1.55-0.21-1.95-0.29c-0.41-0.08-0.77-0.29-1.06-0.54
	c-0.28-0.25-0.41-0.63-0.41-1.13c0-0.67,0.28-1.21,0.9-1.59c0.61-0.38,1.34-0.63,2.32-0.63c0.94,0,1.71,0.25,2.32,0.75
	c0.61,0.5,0.98,1.13,1.06,1.88h2.24c-0.12-1.46-0.69-2.59-1.71-3.39c-1.02-0.79-2.36-1.17-4.03-1.17c-1.02,0-1.91,0.17-2.73,0.54
	c-0.81,0.38-1.47,0.88-1.91,1.55c-0.45,0.67-0.69,1.42-0.69,2.26c0,0.96,0.24,1.67,0.73,2.22c0.49,0.54,1.1,0.92,1.87,1.17
	c0.77,0.25,1.75,0.46,2.97,0.59c0.85,0.13,1.55,0.21,1.99,0.33c0.45,0.13,0.85,0.33,1.14,0.63c0.28,0.29,0.45,0.75,0.45,1.3
	C22.14,30.89,21.81,31.44,21.2,31.81z"/>
</svg>
