<svg version="1.1" id="Layer_1" xmlns="http://www.w3.org/2000/svg" xmlns:xlink="http://www.w3.org/1999/xlink" x="0px" y="0px"
	 viewBox="0 0 19 17.7" style="enable-background:new 0 0 19 17.7;" xml:space="preserve">
	<style type="text/css">
		.st0{fill:#1D3A40;}
	</style>
	<path class="st0" d="M7.2,4.6V10l4.2,2.6l0.7-1.1L8.6,9.3V4.6H7.2z"/>
	<path class="st0" d="M14.3,8.2c0,0.3,0.1,0.6,0.1,0.9c0,3.5-2.8,6.3-6.3,6.3c-3.5,0-6.3-2.8-6.3-6.3c0-3.5,2.8-6.3,6.3-6.3
	c0.6,0,1.2,0.1,1.8,0.3V1.2C9.3,1,8.7,1,8.1,1C3.6,1,0,4.6,0,9.1c0,4.5,3.6,8.1,8.1,8.1c4.5,0,8.1-3.6,8.1-8.1c0-0.3,0-0.6-0.1-0.9
	H14.3z"/>
	<path class="st0" d="M17.6,0.3l-4.1,3.9l-1.7-1.6l-1.1,1.1l2.8,2.6l5.2-4.9L17.6,0.3z"/>
</svg>
