<svg width="17" height="17" viewBox="0 0 17 17" fill="none" xmlns="http://www.w3.org/2000/svg">
<path d="M4.25 15H7.25C7.25 15.825 6.575 16.5 5.75 16.5C4.925 16.5 4.25 15.825 4.25 15ZM2.75 14.25H8.75V12.75H2.75V14.25ZM11.375 7.125C11.375 9.99 9.38 11.52 8.5475 12H2.9525C2.12 11.52 0.125 9.99 0.125 7.125C0.125 4.02 2.645 1.5 5.75 1.5C8.855 1.5 11.375 4.02 11.375 7.125ZM9.875 7.125C9.875 4.8525 8.0225 3 5.75 3C3.4775 3 1.625 4.8525 1.625 7.125C1.625 8.9775 2.7425 10.0425 3.3875 10.5H8.1125C8.7575 10.0425 9.875 8.9775 9.875 7.125ZM15.0275 5.5275L14 6L15.0275 6.4725L15.5 7.5L15.9725 6.4725L17 6L15.9725 5.5275L15.5 4.5L15.0275 5.5275ZM13.25 4.5L13.955 2.955L15.5 2.25L13.955 1.545L13.25 0L12.545 1.545L11 2.25L12.545 2.955L13.25 4.5Z" fill="#68736F"/>
</svg>
