<svg enable-background="new 0 0 32 32" height="512" viewBox="0 0 32 32" width="512" xmlns="http://www.w3.org/2000/svg">
	<style type="text/css">
		.st0{fill:#1D3A40;}
	</style>
<g id="_x31_8_clock_checked">
<g>
<path class="st0" d="m26.833 15.981c.1-.647.167-1.306.167-1.981 0-7.168-5.832-13-13-13s-13 5.832-13 13 5.832 13 13 13c.675 0 1.334-.067 1.98-.167 1.362 2.48 3.998 4.167 7.02 4.167 4.411 0 8-3.589 8-8 0-3.023-1.687-5.658-4.167-7.019zm-12.833 9.019c-6.065 0-11-4.935-11-11s4.935-11 11-11 11 4.935 11 11c0 .422-.025.837-.07 1.245-.619-.154-1.264-.245-1.93-.245-4.411 0-8 3.589-8 8 0 .666.091 1.311.245 1.93-.408.045-.823.07-1.245.07zm9 4c-3.309 0-6-2.691-6-6s2.691-6 6-6 6 2.691 6 6-2.691 6-6 6z"/>
<path class="st0" d="m26.5 19.086-5 5-2-2-1.414 1.414 2.707 2.707c.195.195.451.293.707.293s.512-.098.707-.293l5.707-5.707z"/>
<path class="st0" d="m15 5h-2v8.586l-4.414 4.414 1.414 1.414 4.707-4.707c.188-.187.293-.441.293-.707z"/>
</g>
</g>
</svg>