<svg width="6" height="9" viewBox="0 0 6 9" fill="none" xmlns="http://www.w3.org/2000/svg">
<path d="M1.99258 0.0200338C1.39744 0.132724 0.913226 0.583483 0.744192 1.18215L0.703694 1.32301L0.698412 3.19824L0.693129 5.07347L0.610373 5.1615C0.319844 5.46612 0.108551 5.88695 0.022273 6.33242C-0.0111818 6.5085 -0.00589948 6.96278 0.0310769 7.14062C0.0768571 7.35719 0.143767 7.5544 0.223002 7.71463C0.554028 8.37668 1.121 8.8116 1.85876 8.96831C2.06301 9.01056 2.49617 9.01056 2.70042 8.96831C3.18815 8.86442 3.60017 8.6408 3.92239 8.30625C4.23053 7.98579 4.4295 7.60194 4.5281 7.14062C4.56508 6.96278 4.57036 6.5085 4.53691 6.33242C4.45063 5.88695 4.23934 5.46612 3.94881 5.1615L3.86605 5.07347L3.86077 3.19824L3.85549 1.32301L3.81499 1.18215C3.65828 0.627502 3.21808 0.187307 2.67576 0.0464458C2.48912 -0.00285625 2.17746 -0.0151815 1.99258 0.0200338ZM2.47856 0.724345C2.72507 0.787733 2.94692 0.960289 3.05257 1.16982C3.16526 1.39168 3.15998 1.28779 3.15998 3.4377V5.39569L3.22161 5.44147C3.32901 5.52422 3.51037 5.71439 3.58433 5.82532C3.68293 5.96794 3.76569 6.15282 3.81499 6.33418C3.87133 6.54019 3.86957 6.9082 3.81323 7.11597C3.66532 7.66357 3.22513 8.10376 2.67576 8.25343C2.47328 8.30978 2.0859 8.30978 1.88341 8.25343C1.33405 8.10376 0.893858 7.66357 0.745953 7.11597C0.689608 6.9082 0.687847 6.54019 0.744192 6.33418C0.793494 6.15282 0.87625 5.96794 0.974854 5.82532C1.04881 5.71439 1.23017 5.52422 1.33757 5.44147L1.3992 5.39569V3.4377C1.3992 1.76144 1.40272 1.46563 1.42561 1.37935C1.54887 0.905705 2.0278 0.606373 2.47856 0.724345Z" fill="#68736F"/>
<path d="M2.15977 1.24555C2.08054 1.26844 1.96961 1.38641 1.94672 1.4674C1.93439 1.51319 1.92735 2.21045 1.92735 3.62964L1.92559 5.72497L1.79881 5.78483C1.64914 5.85702 1.4537 6.04191 1.36918 6.19157C1.12795 6.61768 1.19486 7.11774 1.53822 7.46109C1.95728 7.88016 2.60173 7.88016 3.02079 7.46109C3.36414 7.11774 3.43105 6.61768 3.18983 6.19157C3.10531 6.04191 2.90986 5.85702 2.7602 5.78483L2.63342 5.72497L2.62814 3.59442L2.62285 1.46388L2.5806 1.39697C2.49784 1.26315 2.31472 1.19801 2.15977 1.24555ZM2.46615 6.42399C2.4996 6.44688 2.5489 6.49619 2.57531 6.53316C2.61581 6.59127 2.62285 6.6212 2.62285 6.7198C2.62285 6.81841 2.61581 6.84834 2.57531 6.90645C2.49432 7.0209 2.41508 7.06316 2.2795 7.06316C2.18442 7.06316 2.15097 7.05435 2.09814 7.01914C1.96256 6.92758 1.9027 6.77263 1.94319 6.61944C1.96608 6.53492 2.0823 6.40991 2.16329 6.38526C2.24957 6.35885 2.39748 6.37821 2.46615 6.42399Z" fill="#68736F"/>
<path d="M4.39258 0.99721V1.34937H4.92081H5.44904V0.99721V0.645054H4.92081H4.39258V0.99721Z" fill="#68736F"/>
<path d="M4.39258 2.22963V2.58179H4.92081H5.44904V2.22963V1.87748H4.92081H4.39258V2.22963Z" fill="#68736F"/>
<path d="M4.39258 3.48012V3.83228H4.92081H5.44904V3.48012V3.12796H4.92081H4.39258V3.48012Z" fill="#68736F"/>
<path d="M4.39258 4.71254V5.0647H4.92081H5.44904V4.71254V4.36039H4.92081H4.39258V4.71254Z" fill="#68736F"/>
</svg>
