<svg width="16" height="9" viewBox="0 0 16 9" fill="none" xmlns="http://www.w3.org/2000/svg">
<path d="M15.485 5.92773H15.5H15.485ZM3.0125 5.17773C3.905 5.17773 4.0775 5.92773 5.51 5.92773C6.9725 5.92773 7.0775 5.17773 8.0075 5.17773C8.9 5.17773 9.0725 5.92773 10.505 5.92773C11.9675 5.92773 12.0725 5.17773 13.0025 5.17773C13.895 5.17773 14.0525 5.91273 15.485 5.92773V4.42773C14.5925 4.42773 14.42 3.67773 12.9875 3.67773C11.525 3.67773 11.42 4.42773 10.49 4.42773C9.5975 4.42773 9.425 3.67773 7.9925 3.67773C6.53 3.67773 6.425 4.42773 5.495 4.42773C4.6025 4.42773 4.43 3.67773 2.9975 3.67773C1.535 3.67773 1.43 4.42773 0.5 4.42773V5.92773C1.925 5.92773 2.1275 5.17773 3.0125 5.17773ZM13.0025 6.67773C11.54 6.67773 11.435 7.42773 10.505 7.42773C9.6125 7.42773 9.44 6.67773 8.0075 6.67773C6.545 6.67773 6.4325 7.42773 5.5025 7.42773C4.5725 7.42773 4.4675 6.67773 3.005 6.67773C1.5425 6.67773 1.43 7.42773 0.5 7.42773V8.92773C1.9625 8.92773 2.0825 8.17773 3.005 8.17773C3.935 8.17773 4.04 8.92773 5.5025 8.92773C6.965 8.92773 7.0775 8.17773 8.0075 8.17773C8.9 8.17773 9.0725 8.92773 10.505 8.92773C11.96 8.92773 12.0725 8.17773 13.0025 8.17773C13.895 8.17773 14.0675 8.92773 15.5 8.92773V7.42773C14.57 7.42773 14.465 6.67773 13.0025 6.67773ZM3.0125 2.17773C3.905 2.17773 4.0775 2.92773 5.51 2.92773C6.9725 2.92773 7.0775 2.17773 8.0075 2.17773C8.9 2.17773 9.0725 2.92773 10.505 2.92773C11.9675 2.92773 12.0725 2.17773 13.0025 2.17773C13.895 2.17773 14.0525 2.91273 15.485 2.92773V1.42773C14.5925 1.42773 14.42 0.677734 12.9875 0.677734C11.525 0.677734 11.42 1.42773 10.49 1.42773C9.5975 1.42773 9.425 0.677734 7.9925 0.677734C6.53 0.677734 6.425 1.42773 5.495 1.42773C4.6025 1.42773 4.43 0.677734 2.9975 0.677734C1.535 0.677734 1.43 1.42773 0.5 1.42773V2.92773C1.925 2.92773 2.1275 2.17773 3.0125 2.17773Z" fill="white"/>
</svg>
