<svg width="10" height="10" viewBox="0 0 10 10" fill="none" xmlns="http://www.w3.org/2000/svg">
<path d="M4.27655 0.0176158C3.90876 0.0528297 3.43337 0.209337 3.10275 0.403014C2.39064 0.819714 1.87221 1.55138 1.71375 2.36131L1.67658 2.54325L1.53768 2.58042C0.825574 2.7604 0.246498 3.34534 0.0508647 4.08093C0.00586901 4.24917 0 4.30786 0 4.59349C0 4.87911 0.00586901 4.9378 0.0508647 5.10605C0.244542 5.83185 0.788404 6.39136 1.49855 6.59678C1.73331 6.66525 1.97394 6.68677 2.4865 6.68677C3.00298 6.68677 3.07927 6.67307 3.19861 6.55569C3.40207 6.35615 3.3512 6.02357 3.09492 5.89641L2.99124 5.84554H2.47281C1.87026 5.84554 1.76266 5.82989 1.51225 5.70664C1.19337 5.54818 0.939041 5.2293 0.858832 4.88694C0.819705 4.72456 0.819705 4.46241 0.858832 4.30004C0.939041 3.95768 1.19532 3.63488 1.51225 3.48033C1.78614 3.34534 2.0385 3.31209 2.32608 3.37078C2.50998 3.4099 2.60975 3.45294 2.79365 3.57228C3.00298 3.71118 3.12818 3.72487 3.30621 3.62314C3.48815 3.5175 3.55466 3.25927 3.44902 3.06754C3.3649 2.91495 2.94233 2.6665 2.64888 2.59411C2.59997 2.58237 2.55106 2.56672 2.54324 2.5589C2.52172 2.53933 2.59215 2.27914 2.6704 2.09133C2.80343 1.77049 3.11449 1.39488 3.40794 1.2012C3.59966 1.07208 3.85007 0.96057 4.07114 0.90188C4.23547 0.85884 4.30198 0.851015 4.56413 0.851015C4.90258 0.849059 5.03757 0.872535 5.3271 0.98209C5.57165 1.07208 5.79467 1.21098 5.98639 1.39292C6.18985 1.58464 6.30136 1.72745 6.41483 1.94069C6.56742 2.22828 6.63198 2.46304 6.65741 2.82105C6.67893 3.11058 6.72393 3.19862 6.89217 3.28861C6.98608 3.33752 7.01542 3.34339 7.11324 3.33556C7.25214 3.32382 7.35778 3.25927 7.43408 3.14189C7.48886 3.06168 7.48886 3.05581 7.48494 2.77996L7.48299 2.49825L7.62189 2.51195C7.84687 2.53346 8.0425 2.5902 8.25965 2.6978C8.69787 2.91886 9.0324 3.35317 9.13022 3.83443C9.2789 4.56023 8.93068 5.29972 8.27922 5.646C7.98772 5.8025 7.77644 5.84554 7.31083 5.84554C7.01151 5.84554 6.99195 5.8475 6.89413 5.89641C6.63589 6.02553 6.58698 6.34441 6.79436 6.54982C6.92152 6.67894 7.00173 6.69459 7.43799 6.6809C7.93686 6.66525 8.25378 6.59286 8.60005 6.42071C9.72886 5.85728 10.2629 4.58371 9.87363 3.38643C9.63104 2.64106 9.00697 2.02873 8.24205 1.7881C8.00533 1.7118 7.74318 1.67659 7.46538 1.6805L7.22084 1.68246L7.13867 1.53378C6.84913 1.00165 6.35222 0.532133 5.81423 0.283678C5.48752 0.131083 5.17842 0.0489173 4.81846 0.0156593C4.56805 -0.00586033 4.53088 -0.00586033 4.27655 0.0176158Z" fill="#68736F"/>
<path d="M4.80879 4.6503C4.7051 4.69726 4.67967 4.7266 4.441 5.09244C3.92844 5.87888 3.58803 6.52643 3.41979 7.03899C3.35914 7.22484 3.34349 7.30114 3.33567 7.47134C3.2848 8.59036 4.396 9.44137 5.47786 9.11075C6.29952 8.85838 6.81012 8.00346 6.6184 7.20137C6.50298 6.71619 6.09606 5.91997 5.51698 5.04353C5.42112 4.89876 5.32526 4.7579 5.30178 4.73247C5.19614 4.61705 4.96334 4.57792 4.80879 4.6503ZM5.15506 6.03539C5.52481 6.6575 5.75957 7.14855 5.81435 7.41461C5.8613 7.64154 5.76935 7.90956 5.57958 8.10128C5.25092 8.42995 4.7364 8.42799 4.40774 8.09737C4.22776 7.91739 4.1319 7.64545 4.17298 7.43417C4.22384 7.16224 4.48795 6.61447 4.88704 5.94735C4.93986 5.85932 4.98877 5.78693 4.9966 5.78693C5.00247 5.78693 5.07485 5.89845 5.15506 6.03539Z" fill="#68736F"/>
</svg>
