<svg height="512" viewBox="0 0 512 512" width="512" xmlns="http://www.w3.org/2000/svg" >
	<style type="text/css">
		.st0{fill:#1D3A40;}
	</style>
	<path class="st0" d="m207.125 422.641c-82.925-17.776-143.125-92.341-143.125-177.308 0-99.989 81.344-181.333 181.333-181.333 84.969 0 159.532 60.2 177.3 143.13a21.338 21.338 0 0 0 41.73-8.937c-21.963-102.479-114.082-176.86-219.03-176.86-123.51 0-224 100.485-224 224 0 104.948 74.375 197.063 176.855 219.026a21.332 21.332 0 1 0 8.937-41.718z"/>
	<path class="st0" d="m224 117.333v106.667h-64a21.334 21.334 0 0 0 0 42.667h85.333a21.335 21.335 0 0 0 21.334-21.334v-128a21.334 21.334 0 0 0 -42.667 0z"/>
	<path class="st0" d="m373.333 234.667c-76.458 0-138.666 62.2-138.666 138.666s62.208 138.667 138.666 138.667 138.667-62.2 138.667-138.667-62.208-138.666-138.667-138.666zm0 234.666a96 96 0 1 1 96-96 96.108 96.108 0 0 1 -96 96z"/>
	<path class="st0" d="m373.333 298.667a21.334 21.334 0 0 0 -21.333 21.333v53.333a21.334 21.334 0 1 0 42.667 0v-53.333a21.334 21.334 0 0 0 -21.334-21.333z"/>
	<circle class="st0" cx="373.333" cy="426.667" r="21.333"/>
</svg>