<svg width="10" height="9" viewBox="0 0 10 9" fill="none" xmlns="http://www.w3.org/2000/svg">
<path d="M4.0764 0.0112181C3.17985 0.10281 2.30621 0.467415 1.63689 1.02753C0.1996 2.2288 -0.353474 4.14694 0.227782 5.91008C0.60824 7.06907 1.422 8.00084 2.52638 8.54334C2.98258 8.7688 3.42116 8.90266 3.9531 8.9784C4.1627 9.00835 4.85493 9.00659 5.07158 8.97664C6.59517 8.76704 7.86513 7.86345 8.54326 6.50895C9.00474 5.58599 9.1298 4.55382 8.90786 3.5146C8.80923 3.04784 8.5415 2.42607 8.2632 2.00862C7.77706 1.28117 7.06722 0.689349 6.28517 0.356448C5.92937 0.204969 5.52954 0.0922413 5.13323 0.0341158C4.91658 0.00241089 4.29129 -0.0116806 4.0764 0.0112181ZM4.99584 0.79327C6.23233 0.955317 7.31205 1.73209 7.86337 2.85409C8.12229 3.38426 8.24206 3.90035 8.24206 4.49745C8.24206 4.93604 8.18922 5.27246 8.05536 5.67758C7.61325 7.02856 6.41023 8.02374 4.99584 8.20868C4.72987 8.24215 4.286 8.24215 4.02003 8.20868C2.34672 7.98851 1.01864 6.66219 0.80023 4.98888C0.766764 4.72291 0.766764 4.27904 0.80023 4.01307C0.9658 2.75721 1.77075 1.65459 2.91917 1.1156C3.25383 0.95884 3.64486 0.842589 4.00594 0.795032C4.25077 0.761565 4.7422 0.761565 4.99584 0.79327Z" fill="#68736F"/>
<path d="M4.45163 0.944681C4.42344 0.960534 4.41992 0.990477 4.41992 1.15957C4.41992 1.37446 4.43049 1.40088 4.50799 1.40088C4.58549 1.40088 4.59606 1.37446 4.59606 1.15957C4.59606 0.98167 4.59254 0.960534 4.56259 0.94292C4.52032 0.921784 4.49038 0.921784 4.45163 0.944681Z" fill="#68736F"/>
<path d="M3.53026 1.08921C3.50736 1.1262 3.50912 1.14558 3.5514 1.30234C3.60248 1.49257 3.64475 1.54541 3.71344 1.50666C3.78214 1.46967 3.78566 1.43444 3.7381 1.25831C3.71344 1.16671 3.68526 1.08217 3.67646 1.06984C3.64651 1.03285 3.5602 1.04342 3.53026 1.08921Z" fill="#68736F"/>
<path d="M5.33867 1.06984C5.32987 1.08217 5.30168 1.16671 5.27703 1.25831C5.22947 1.43444 5.23299 1.46967 5.30168 1.50666C5.37038 1.54541 5.41265 1.49257 5.46373 1.30234C5.506 1.14558 5.50777 1.1262 5.48487 1.08921C5.45492 1.04342 5.36862 1.03285 5.33867 1.06984Z" fill="#68736F"/>
<path d="M2.71551 1.41148C2.69437 1.42557 2.67676 1.45728 2.67676 1.48017C2.67676 1.5383 2.84409 1.81836 2.88812 1.83245C2.93392 1.84654 2.99204 1.81308 3.00437 1.76376C3.02199 1.69154 2.82648 1.3833 2.76483 1.3833C2.75954 1.3833 2.73664 1.39563 2.71551 1.41148Z" fill="#68736F"/>
<path d="M6.20446 1.40972C6.14281 1.45375 6.00014 1.71444 6.01247 1.76376C6.0248 1.81308 6.08293 1.84654 6.12872 1.83245C6.17276 1.81836 6.34009 1.5383 6.34009 1.48017C6.34009 1.45728 6.32247 1.42557 6.30134 1.41148C6.25378 1.37625 6.25202 1.37625 6.20446 1.40972Z" fill="#68736F"/>
<path d="M1.98293 1.97529C1.93009 2.02637 1.95123 2.07393 2.08157 2.20603C2.21191 2.33638 2.2718 2.3628 2.32112 2.31348C2.37044 2.26416 2.34402 2.20427 2.21544 2.07569C2.08333 1.94359 2.03577 1.92245 1.98293 1.97529Z" fill="#68736F"/>
<path d="M6.8008 2.07564C6.67222 2.20422 6.6458 2.26411 6.69512 2.31343C6.74444 2.36274 6.80432 2.33632 6.93291 2.20774C7.06501 2.07564 7.08615 2.02808 7.0333 1.97524C6.98046 1.9224 6.93291 1.94354 6.8008 2.07564Z" fill="#68736F"/>
<path d="M1.41555 2.71324C1.38913 2.75375 1.38913 2.7608 1.41379 2.79955C1.45606 2.86296 1.72027 3.00915 1.77135 2.99682C1.82067 2.98449 1.85413 2.92637 1.84004 2.88057C1.82595 2.83654 1.54589 2.66921 1.48777 2.66921C1.46135 2.66921 1.43316 2.68682 1.41555 2.71324Z" fill="#68736F"/>
<path d="M7.33216 2.75882C7.1842 2.84865 7.1525 2.88916 7.18596 2.95081C7.22295 3.01775 7.27755 3.01246 7.43255 2.92439C7.51006 2.8786 7.58756 2.82223 7.60341 2.79933C7.62807 2.76058 7.62807 2.75354 7.60165 2.71303C7.55937 2.64786 7.49773 2.65842 7.33216 2.75882Z" fill="#68736F"/>
<path d="M5.4727 3.33304C5.10809 3.65185 4.80866 3.91606 4.80866 3.92135C4.8069 3.92663 4.84212 3.95657 4.88616 3.98828C4.92843 4.01822 4.99008 4.07987 5.02002 4.12214C5.05173 4.16618 5.08167 4.20141 5.08696 4.19964C5.10809 4.19788 6.24242 2.88213 6.2477 2.85395C6.25651 2.81872 6.20191 2.75707 6.16492 2.75707C6.14907 2.75707 5.8373 3.016 5.4727 3.33304Z" fill="#68736F"/>
<path d="M1.09413 3.52495C1.05186 3.55489 1.04129 3.63944 1.07828 3.66938C1.08885 3.67819 1.17339 3.70637 1.26498 3.73103C1.44112 3.77859 1.47635 3.77507 1.51334 3.70637C1.55033 3.63944 1.49925 3.59541 1.33368 3.55137C1.25442 3.53023 1.17515 3.5091 1.16106 3.50381C1.14521 3.50029 1.11527 3.5091 1.09413 3.52495Z" fill="#68736F"/>
<path d="M7.69976 3.54432C7.51657 3.59541 7.46549 3.63768 7.50248 3.70637C7.53947 3.77507 7.5747 3.77859 7.75084 3.73103C7.94283 3.67995 7.96044 3.66762 7.96044 3.60069C7.96044 3.55842 7.90584 3.49324 7.87237 3.49853C7.86709 3.49853 7.78959 3.51967 7.69976 3.54432Z" fill="#68736F"/>
<path d="M4.32301 4.09402C4.23494 4.13453 4.13102 4.24198 4.09403 4.32828C4.05705 4.41811 4.06057 4.59777 4.10108 4.68584C4.13807 4.76687 4.25608 4.88136 4.34239 4.91658C4.43222 4.95357 4.6066 4.94829 4.69467 4.90426C4.78097 4.86374 4.88842 4.75278 4.92364 4.66647C4.95887 4.58192 4.95535 4.40226 4.91484 4.31595C4.87433 4.22789 4.76688 4.12396 4.68057 4.08697C4.58898 4.04999 4.41108 4.05351 4.32301 4.09402Z" fill="#68736F"/>
<path d="M0.946115 4.45701C0.932024 4.49047 0.932024 4.51161 0.946115 4.54508C0.96549 4.58911 0.970774 4.58911 1.16629 4.58911C1.38118 4.58911 1.4076 4.57854 1.4076 4.50104C1.4076 4.42354 1.38118 4.41297 1.16629 4.41297C0.970774 4.41297 0.96549 4.41297 0.946115 4.45701Z" fill="#68736F"/>
<path d="M7.62856 4.43411C7.61623 4.44644 7.60742 4.47638 7.60742 4.50104C7.60742 4.57854 7.63384 4.58911 7.84873 4.58911C8.04424 4.58911 8.04953 4.58911 8.0689 4.54508C8.08299 4.51161 8.08299 4.49047 8.0689 4.45701C8.04953 4.41297 8.04424 4.41297 7.84873 4.41297C7.71663 4.41297 7.64265 4.42002 7.62856 4.43411Z" fill="#68736F"/>
<path d="M3.81555 4.78636C3.68873 4.9079 3.69577 4.94665 3.87896 5.12983C4.06214 5.31302 4.10089 5.32006 4.22243 5.19324L4.30169 5.11222L4.21714 5.06995C4.11146 5.01534 3.99345 4.89733 3.93884 4.79165L3.89657 4.7071L3.81555 4.78636Z" fill="#68736F"/>
<path d="M1.25812 5.27056C1.17181 5.29522 1.08903 5.3234 1.07846 5.33221C1.03971 5.36391 1.05028 5.44846 1.09607 5.4784C1.13306 5.5013 1.15244 5.49954 1.30391 5.45903C1.45715 5.41852 1.53113 5.37448 1.53113 5.32516C1.53113 5.30579 1.45011 5.223 1.43073 5.22477C1.42369 5.22477 1.34619 5.2459 1.25812 5.27056Z" fill="#68736F"/>
<path d="M7.52841 5.26528C7.50375 5.28994 7.48438 5.31636 7.48438 5.32516C7.48438 5.37448 7.55835 5.41852 7.71159 5.45903C7.86307 5.49954 7.88245 5.5013 7.91944 5.4784C7.96523 5.44846 7.9758 5.36215 7.93881 5.33221C7.92648 5.3234 7.8525 5.29874 7.775 5.27761C7.6975 5.25647 7.62 5.23533 7.60415 5.23005C7.58477 5.22477 7.55483 5.23886 7.52841 5.26528Z" fill="#68736F"/>
<path d="M1.57936 6.08106C1.50362 6.1251 1.42964 6.1797 1.41379 6.2026C1.38913 6.24135 1.38913 6.24839 1.41555 6.2889C1.45782 6.35408 1.51066 6.34527 1.67976 6.24487C1.85766 6.14095 1.88231 6.1022 1.81362 6.0335C1.7643 5.98419 1.73436 5.98947 1.57936 6.08106Z" fill="#68736F"/>
<path d="M7.20333 6.0335C7.13463 6.1022 7.15929 6.14095 7.33719 6.24487C7.50628 6.34527 7.55913 6.35408 7.6014 6.2889C7.62782 6.24839 7.62782 6.24135 7.60316 6.2026C7.57322 6.15856 7.31077 5.99828 7.26498 5.99828C7.25088 5.99828 7.2227 6.01413 7.20333 6.0335Z" fill="#68736F"/>
<path d="M2.08157 6.79609C1.95123 6.92819 1.93009 6.97575 1.98293 7.02683C2.03401 7.07967 2.08157 7.05854 2.21367 6.92819C2.34402 6.79785 2.37044 6.73797 2.32112 6.68865C2.2718 6.63933 2.21191 6.66575 2.08157 6.79609Z" fill="#68736F"/>
<path d="M6.69507 6.68865C6.64575 6.73797 6.67217 6.79785 6.80251 6.92819C6.93461 7.05854 6.98217 7.07967 7.03325 7.02683C7.08609 6.97399 7.06496 6.92643 6.93285 6.79433C6.80427 6.66575 6.74439 6.63933 6.69507 6.68865Z" fill="#68736F"/>
<path d="M2.87403 7.173C2.8388 7.18709 2.67676 7.4742 2.67676 7.52176C2.67676 7.54818 2.69437 7.57636 2.72079 7.59397C2.7613 7.62039 2.76835 7.62039 2.8071 7.59573C2.85113 7.56579 3.01142 7.30334 3.01142 7.25755C3.01142 7.19942 2.93216 7.1501 2.87403 7.173Z" fill="#68736F"/>
<path d="M6.04109 7.1959C6.02171 7.21528 6.00586 7.24346 6.00586 7.25755C6.00586 7.30334 6.16614 7.56579 6.21018 7.59573C6.24893 7.62039 6.25598 7.62039 6.29649 7.59397C6.36166 7.5517 6.35285 7.49886 6.25245 7.32977C6.14853 7.15187 6.10978 7.12721 6.04109 7.1959Z" fill="#68736F"/>
<path d="M3.63078 7.5076C3.60789 7.52874 3.57794 7.60095 3.54976 7.70487C3.50925 7.85635 3.50749 7.87573 3.53038 7.91272C3.56033 7.95851 3.64664 7.96908 3.67658 7.93033C3.68539 7.91976 3.71005 7.84578 3.73118 7.76828C3.75232 7.69078 3.77346 7.61328 3.77874 7.59743C3.78755 7.56573 3.71709 7.47766 3.68363 7.47766C3.67306 7.47766 3.65016 7.49175 3.63078 7.5076Z" fill="#68736F"/>
<path d="M5.27266 7.52169C5.24623 7.54811 5.23214 7.57805 5.23743 7.59743C5.24271 7.61328 5.26385 7.69078 5.28498 7.76828C5.30612 7.84578 5.33078 7.91976 5.33959 7.93033C5.36953 7.96908 5.45584 7.95851 5.48578 7.91272C5.50868 7.87573 5.50692 7.85635 5.46641 7.70487C5.4259 7.55163 5.38186 7.47766 5.33254 7.47766C5.32374 7.47766 5.29731 7.49703 5.27266 7.52169Z" fill="#68736F"/>
<path d="M4.44106 7.62208C4.42697 7.63618 4.41992 7.71015 4.41992 7.84226C4.41992 8.03777 4.41992 8.04305 4.46396 8.06243C4.49742 8.07652 4.51856 8.07652 4.55203 8.06243C4.59606 8.04305 4.59606 8.03777 4.59606 7.84226C4.59606 7.71015 4.58901 7.63618 4.57492 7.62208C4.5485 7.59566 4.46748 7.59566 4.44106 7.62208Z" fill="#68736F"/>
</svg>
