<svg width="12" height="10" viewBox="0 0 12 10" fill="none" xmlns="http://www.w3.org/2000/svg">
<path d="M0.350586 9.21997H11.5445" stroke="#68736F" stroke-width="0.8" stroke-miterlimit="10"/>
<path d="M1.74906 7.47095H0" stroke="#68736F" stroke-width="0.5" stroke-miterlimit="10"/>
<path d="M11.8946 7.47095H10.1455" stroke="#68736F" stroke-width="0.5" stroke-miterlimit="10"/>
<path d="M2.68745 4.91609L1.27637 3.69067" stroke="#68736F" stroke-width="0.5" stroke-miterlimit="10"/>
<path d="M9.17717 4.88042L10.647 3.72615" stroke="#68736F" stroke-width="0.5" stroke-miterlimit="10"/>
<mask id="path-6-inside-1_808_3499" fill="white">
<path d="M8.77353 9.22021C9.08853 8.71228 9.27043 8.11288 9.27043 7.47115C9.27043 5.63587 7.78269 4.14795 5.94723 4.14795C4.11177 4.14795 2.62402 5.63587 2.62402 7.47115C2.62402 8.11271 2.80593 8.71194 3.12093 9.21986"/>
</mask>
<path d="M9.45339 9.64185C9.84468 9.01092 10.0704 8.26608 10.0704 7.47115H8.47043C8.47043 7.95969 8.33238 8.41364 8.09366 8.79857L9.45339 9.64185ZM10.0704 7.47115C10.0704 5.19407 8.22454 3.34795 5.94723 3.34795V4.94795C7.34083 4.94795 8.47043 6.07767 8.47043 7.47115H10.0704ZM5.94723 3.34795C3.66991 3.34795 1.82402 5.19407 1.82402 7.47115H3.42402C3.42402 6.07767 4.55363 4.94795 5.94723 4.94795V3.34795ZM1.82402 7.47115C1.82402 8.26597 2.04981 9.01063 2.44106 9.6415L3.8008 8.79822C3.56204 8.41324 3.42402 7.95945 3.42402 7.47115H1.82402Z" fill="#68736F" mask="url(#path-6-inside-1_808_3499)"/>
<path d="M5.89393 0.893934C5.95251 0.835355 6.04749 0.835355 6.10607 0.893934L7.06066 1.84853C7.11924 1.90711 7.11924 2.00208 7.06066 2.06066C7.00208 2.11924 6.90711 2.11924 6.84853 2.06066L6 1.21213L5.15147 2.06066C5.09289 2.11924 4.99792 2.11924 4.93934 2.06066C4.88076 2.00208 4.88076 1.90711 4.93934 1.84853L5.89393 0.893934ZM5.85 3L5.85 1L6.15 1L6.15 3L5.85 3Z" fill="#68736F"/>
</svg>
