<svg width="12" height="9" viewBox="0 0 12 9" fill="none" xmlns="http://www.w3.org/2000/svg">
<path d="M0.350586 8.22046H11.5445" stroke="white" stroke-width="0.8" stroke-miterlimit="10"/>
<path d="M1.74906 6.47119H0" stroke="white" stroke-width="0.5" stroke-miterlimit="10"/>
<path d="M11.8946 6.47119H10.1455" stroke="white" stroke-width="0.5" stroke-miterlimit="10"/>
<path d="M2.68745 3.91658L1.27637 2.69116" stroke="white" stroke-width="0.5" stroke-miterlimit="10"/>
<path d="M9.17717 3.88091L10.647 2.72664" stroke="white" stroke-width="0.5" stroke-miterlimit="10"/>
<mask id="path-6-inside-1_808_3498" fill="white">
<path d="M8.77353 8.2207C9.08853 7.71277 9.27043 7.11337 9.27043 6.47164C9.27043 4.63636 7.78269 3.14844 5.94723 3.14844C4.11177 3.14844 2.62402 4.63636 2.62402 6.47164C2.62402 7.1132 2.80593 7.71242 3.12093 8.22035"/>
</mask>
<path d="M9.45339 8.64234C9.84468 8.01141 10.0704 7.26656 10.0704 6.47164H8.47043C8.47043 6.96018 8.33238 7.41413 8.09366 7.79906L9.45339 8.64234ZM10.0704 6.47164C10.0704 4.19456 8.22454 2.34844 5.94723 2.34844V3.94844C7.34083 3.94844 8.47043 5.07816 8.47043 6.47164H10.0704ZM5.94723 2.34844C3.66991 2.34844 1.82402 4.19456 1.82402 6.47164H3.42402C3.42402 5.07816 4.55363 3.94844 5.94723 3.94844V2.34844ZM1.82402 6.47164C1.82402 7.26645 2.04981 8.01112 2.44106 8.64199L3.8008 7.79871C3.56204 7.41373 3.42402 6.95994 3.42402 6.47164H1.82402Z" fill="white" mask="url(#path-6-inside-1_808_3498)"/>
<path d="M6.05333 2.37984C5.99475 2.43842 5.89978 2.43842 5.8412 2.37984L4.88661 1.42524C4.82803 1.36667 4.82803 1.27169 4.88661 1.21311C4.94518 1.15453 5.04016 1.15453 5.09874 1.21311L5.94727 2.06164L6.79579 1.21311C6.85437 1.15453 6.94935 1.15453 7.00793 1.21311C7.0665 1.27169 7.0665 1.36667 7.00793 1.42524L6.05333 2.37984ZM6.09727 6.55668e-09L6.09727 2.27377L5.79727 2.27377L5.79727 -6.55668e-09L6.09727 6.55668e-09Z" fill="white"/>
</svg>
