<?xml version="1.0" encoding="utf-8"?>
<!-- Generator: Adobe Illustrator 25.4.1, SVG Export Plug-In . SVG Version: 6.00 Build 0)  -->
<svg version="1.1" id="Layer_1" xmlns="http://www.w3.org/2000/svg" xmlns:xlink="http://www.w3.org/1999/xlink" x="0px" y="0px"
	 viewBox="0 0 512 512" style="enable-background:new 0 0 512 512;" xml:space="preserve">
<style type="text/css">
	.st0{fill:#F5F7FA;}
	.st1{fill:#434A54;}
	.st2{fill:#ED5564;}
	.st3{fill:#DA4453;}
	.st4{fill:#E6E9ED;}
</style>
<path class="st0" d="M247.8,444.4c-27.9,0-50.7-22.7-50.7-50.7c0-13.3,5.1-25.9,14.5-35.5l2.4-2.5V89.8c0-18.6,15.2-33.8,33.8-33.8
	c18.6,0,33.8,15.2,33.8,33.8v266.1l2.4,2.5c9.3,9.5,14.5,22.1,14.5,35.5C298.5,421.7,275.7,444.4,247.8,444.4z"/>
<g>
	<path class="st1" d="M230.2,224.9c0,4.7-3.8,8.4-8.4,8.4c-4.7,0-8.4-3.8-8.4-8.4s3.8-8.4,8.4-8.4
		C226.4,216.4,230.2,220.2,230.2,224.9z"/>
	<path class="st1" d="M282.3,224.9c0,4.7-3.8,8.4-8.4,8.4s-8.4-3.8-8.4-8.4s3.8-8.4,8.4-8.4S282.3,220.2,282.3,224.9z"/>
</g>
<path class="st2" d="M247.8,410.6c-9.3,0-16.9-7.6-16.9-16.9c0-9.3,7.6-16.9,16.9-16.9c9.3,0,16.9,7.6,16.9,16.9
	S257.1,410.6,247.8,410.6z"/>
<g>
	<path class="st3" d="M247.8,368.4c-14,0-25.3,11.3-25.3,25.3c0,14,11.3,25.3,25.3,25.3c14,0,25.3-11.3,25.3-25.3
		C273.1,379.8,261.8,368.4,247.8,368.4z M247.8,402.2c-4.7,0-8.4-3.8-8.4-8.4c0-4.7,3.8-8.4,8.4-8.4c4.7,0,8.4,3.8,8.4,8.4
		C256.3,398.4,252.5,402.2,247.8,402.2z"/>
	<path class="st3" d="M247.8,385.3c-4.7,0-8.4-3.8-8.4-8.4V140.4c0-4.7,3.8-8.4,8.4-8.4c4.7,0,8.4,3.8,8.4,8.4v236.4
		C256.3,381.5,252.5,385.3,247.8,385.3z"/>
</g>
<path class="st4" d="M290,352.4V89.8c0-23.3-18.9-42.2-42.2-42.2c-23.3,0-42.2,18.9-42.2,42.2v262.6c-10.4,10.7-16.9,25.3-16.9,41.4
	c0,32.6,26.5,59.1,59.1,59.1c32.6,0,59.1-26.5,59.1-59.1C306.9,377.7,300.5,363.1,290,352.4z M247.8,436
	c-23.3,0-42.2-18.9-42.2-42.2c0-11.1,4.3-21.6,12.1-29.5l4.8-4.9v-6.9V89.8c0-14,11.4-25.3,25.3-25.3c14,0,25.3,11.4,25.3,25.3
	v262.6v6.9l4.8,4.9c7.8,7.9,12.1,18.4,12.1,29.5C290,417,271.1,436,247.8,436z"/>
</svg>
