<svg width="30" height="30" viewBox="0 0 30 30" fill="none" xmlns="http://www.w3.org/2000/svg">
<path d="M7.05 21.25L6.1625 22.1375C5.92969 22.3717 5.79901 22.6885 5.79901 23.0188C5.79901 23.349 5.92969 23.6658 6.1625 23.9C6.3967 24.1328 6.71352 24.2635 7.04375 24.2635C7.37398 24.2635 7.6908 24.1328 7.925 23.9L8.8125 23.0125C9.01728 22.7734 9.12429 22.4658 9.11214 22.1512C9.09999 21.8366 8.96957 21.5382 8.74695 21.3155C8.52434 21.0929 8.22591 20.9625 7.91132 20.9504C7.59672 20.9382 7.28913 21.0452 7.05 21.25ZM6.25 15C6.25 14.6685 6.1183 14.3505 5.88388 14.1161C5.64946 13.8817 5.33152 13.75 5 13.75H3.75C3.41848 13.75 3.10054 13.8817 2.86612 14.1161C2.6317 14.3505 2.5 14.6685 2.5 15C2.5 15.3315 2.6317 15.6495 2.86612 15.8839C3.10054 16.1183 3.41848 16.25 3.75 16.25H5C5.33152 16.25 5.64946 16.1183 5.88388 15.8839C6.1183 15.6495 6.25 15.3315 6.25 15ZM15 6.25C15.3315 6.25 15.6495 6.1183 15.8839 5.88388C16.1183 5.64946 16.25 5.33152 16.25 5V3.75C16.25 3.41848 16.1183 3.10054 15.8839 2.86612C15.6495 2.6317 15.3315 2.5 15 2.5C14.6685 2.5 14.3505 2.6317 14.1161 2.86612C13.8817 3.10054 13.75 3.41848 13.75 3.75V5C13.75 5.33152 13.8817 5.64946 14.1161 5.88388C14.3505 6.1183 14.6685 6.25 15 6.25ZM7.05 8.8125C7.28283 9.04343 7.59708 9.17362 7.925 9.175C8.08951 9.17595 8.25259 9.14442 8.40488 9.08221C8.55718 9.02001 8.6957 8.92835 8.8125 8.8125C9.04531 8.5783 9.17599 8.26148 9.17599 7.93125C9.17599 7.60102 9.04531 7.2842 8.8125 7.05L7.925 6.1625C7.68587 5.95772 7.37828 5.85071 7.06368 5.86286C6.74909 5.87501 6.45066 6.00543 6.22805 6.22805C6.00543 6.45066 5.87501 6.74909 5.86286 7.06368C5.85071 7.37828 5.95772 7.68587 6.1625 7.925L7.05 8.8125ZM22.05 9.175C22.3779 9.17362 22.6922 9.04343 22.925 8.8125L23.8125 7.925C23.9434 7.81294 24.0496 7.67504 24.1247 7.51996C24.1997 7.36488 24.2418 7.19597 24.2485 7.02382C24.2551 6.85167 24.2261 6.68 24.1633 6.5196C24.1005 6.35919 24.0051 6.21351 23.8833 6.09169C23.7615 5.96987 23.6158 5.87455 23.4554 5.8117C23.295 5.74886 23.1233 5.71985 22.9512 5.7265C22.779 5.73315 22.6101 5.77531 22.455 5.85034C22.3 5.92537 22.1621 6.03165 22.05 6.1625L21.25 7.05C21.0172 7.2842 20.8865 7.60102 20.8865 7.93125C20.8865 8.26148 21.0172 8.5783 21.25 8.8125C21.4704 9.0317 21.7645 9.16094 22.075 9.175H22.05ZM26.25 13.75H25C24.6685 13.75 24.3505 13.8817 24.1161 14.1161C23.8817 14.3505 23.75 14.6685 23.75 15C23.75 15.3315 23.8817 15.6495 24.1161 15.8839C24.3505 16.1183 24.6685 16.25 25 16.25H26.25C26.5815 16.25 26.8995 16.1183 27.1339 15.8839C27.3683 15.6495 27.5 15.3315 27.5 15C27.5 14.6685 27.3683 14.3505 27.1339 14.1161C26.8995 13.8817 26.5815 13.75 26.25 13.75ZM15 23.75C14.6685 23.75 14.3505 23.8817 14.1161 24.1161C13.8817 24.3505 13.75 24.6685 13.75 25V26.25C13.75 26.5815 13.8817 26.8995 14.1161 27.1339C14.3505 27.3683 14.6685 27.5 15 27.5C15.3315 27.5 15.6495 27.3683 15.8839 27.1339C16.1183 26.8995 16.25 26.5815 16.25 26.25V25C16.25 24.6685 16.1183 24.3505 15.8839 24.1161C15.6495 23.8817 15.3315 23.75 15 23.75ZM22.95 21.25C22.7125 21.1179 22.4385 21.0668 22.1693 21.1044C21.9002 21.142 21.6507 21.2663 21.4585 21.4585C21.2663 21.6507 21.142 21.9002 21.1044 22.1693C21.0668 22.4385 21.1179 22.7125 21.25 22.95L22.1375 23.8375C22.3717 24.0703 22.6885 24.201 23.0188 24.201C23.349 24.201 23.6658 24.0703 23.9 23.8375C24.1328 23.6033 24.2635 23.2865 24.2635 22.9562C24.2635 22.626 24.1328 22.3092 23.9 22.075L22.95 21.25ZM15 8.125C13.6403 8.125 12.311 8.52821 11.1805 9.28365C10.0499 10.0391 9.16868 11.1128 8.64833 12.3691C8.12798 13.6253 7.99183 15.0076 8.2571 16.3412C8.52237 17.6749 9.17715 18.8999 10.1386 19.8614C11.1001 20.8228 12.3251 21.4776 13.6588 21.7429C14.9924 22.0082 16.3747 21.872 17.6309 21.3517C18.8872 20.8313 19.9609 19.9501 20.7164 18.8195C21.4718 17.689 21.875 16.3597 21.875 15C21.8717 13.1777 21.1463 11.4309 19.8577 10.1423C18.5691 8.85369 16.8223 8.1283 15 8.125ZM15 19.375C14.1347 19.375 13.2888 19.1184 12.5694 18.6377C11.8499 18.1569 11.2892 17.4737 10.958 16.6742C10.6269 15.8748 10.5403 14.9951 10.7091 14.1465C10.8779 13.2978 11.2946 12.5183 11.9064 11.9064C12.5183 11.2946 13.2978 10.8779 14.1465 10.7091C14.9951 10.5403 15.8748 10.6269 16.6742 10.958C17.4737 11.2892 18.1569 11.8499 18.6377 12.5694C19.1184 13.2888 19.375 14.1347 19.375 15C19.375 16.1603 18.9141 17.2731 18.0936 18.0936C17.2731 18.9141 16.1603 19.375 15 19.375Z" fill="#105C6B"/>
</svg>
