<svg width="32" height="31" viewBox="0 0 32 31" fill="none" xmlns="http://www.w3.org/2000/svg">
<g clip-path="url(#clip0_808_3781)">
<path d="M19.2001 21.4427C19.2001 23.5238 17.4973 25.2266 15.4161 25.2266C13.335 25.2266 11.6322 23.5238 11.6322 21.4427H14.1548C14.1548 22.1364 14.7224 22.704 15.4161 22.704C16.1099 22.704 16.6775 22.1364 16.6775 21.4427C16.6775 20.7489 16.1099 20.1813 15.4161 20.1813H3.43359V17.6587H15.4161C17.4973 17.6587 19.2001 19.3615 19.2001 21.4427ZM24.876 8.1988C24.876 5.76445 22.8958 3.78418 20.4614 3.78418C18.0271 3.78418 16.0468 5.76445 16.0468 8.1988H18.5694C18.5694 7.1519 19.4145 6.30682 20.4614 6.30682C21.5083 6.30682 22.3534 7.1519 22.3534 8.1988C22.3534 9.2457 21.5083 10.0908 20.4614 10.0908H3.43359V12.6134H20.4614C22.8958 12.6134 24.876 10.6331 24.876 8.1988ZM24.2454 13.8747H3.43359V16.3974H24.2454C25.2923 16.3974 26.1374 17.2425 26.1374 18.2894C26.1374 19.3363 25.2923 20.1813 24.2454 20.1813V22.704C26.6797 22.704 28.66 20.7237 28.66 18.2894C28.66 15.855 26.6797 13.8747 24.2454 13.8747Z" fill="#105C6B"/>
</g>
<defs>
<clipPath id="clip0_808_3781">
<rect width="30.2717" height="30.2717" fill="white" transform="translate(0.911133)"/>
</clipPath>
</defs>
</svg>
