<svg width="13" height="9" viewBox="0 0 13 9" fill="none" xmlns="http://www.w3.org/2000/svg">
<path d="M5.77495 0.0366812C4.16967 0.280909 2.55421 1.19422 1.03033 2.71809C0.529158 3.21926 0.152642 3.65938 0.0661448 3.83746C0.0101761 3.95449 0 4.013 0 4.19363C0 4.4811 0.0610567 4.60576 0.384149 4.97973C1.49843 6.2721 2.95616 7.38639 4.22055 7.91555C5.09569 8.27934 5.75714 8.40654 6.66282 8.38365C7.52524 8.3633 8.20704 8.19285 9.08219 7.78071C10.1023 7.30498 11.326 6.37386 12.2673 5.36388C12.9313 4.64901 13 4.53962 13 4.19363C13 3.89852 12.9415 3.7815 12.5802 3.36682C11.6033 2.24745 10.4636 1.32396 9.34677 0.74901C8.58356 0.357229 7.92975 0.135899 7.21233 0.0341377C6.87906 -0.0116549 6.09041 -0.0116549 5.77495 0.0366812ZM6.98845 1.43335C7.35988 1.4995 7.73131 1.64705 8.06458 1.86584C8.26047 1.99304 8.70059 2.43316 8.82779 2.62905C9.14579 3.11496 9.29589 3.61105 9.29843 4.18345C9.30098 5.09167 8.89902 5.89559 8.16634 6.4451C7.68297 6.80889 7.12329 6.99206 6.49491 6.99206C4.94305 6.99206 3.69902 5.74549 3.70157 4.19617C3.70411 3.44314 3.95597 2.80968 4.46477 2.27543C4.76751 1.95743 5.09061 1.73609 5.46458 1.58854C5.63249 1.5224 5.95303 1.43335 6.10568 1.413C6.28376 1.38756 6.80783 1.40028 6.98845 1.43335Z" fill="#68736F"/>
<path d="M6.20709 2.20936C5.71609 2.28822 5.25817 2.54771 4.9478 2.92932C4.79007 3.12266 4.60944 3.48137 4.54838 3.72305C4.48733 3.98 4.49241 4.45065 4.5611 4.70505C4.75191 5.4072 5.29378 5.94399 6.01629 6.14243C6.26306 6.21112 6.75406 6.20603 7.01609 6.13225C8.0795 5.83206 8.6977 4.78392 8.44584 3.71033C8.39241 3.48392 8.20924 3.12012 8.05151 2.92932C7.79457 2.61131 7.36208 2.33656 6.98302 2.25006C6.76932 2.19918 6.40044 2.18137 6.20709 2.20936Z" fill="#68736F"/>
</svg>
