<?xml version="1.0" encoding="utf-8"?>
<!-- Generator: Adobe Illustrator 25.4.1, SVG Export Plug-In . SVG Version: 6.00 Build 0)  -->
<svg version="1.1" id="Layer_1" xmlns="http://www.w3.org/2000/svg" xmlns:xlink="http://www.w3.org/1999/xlink" x="0px" y="0px"
	 viewBox="0 0 64 64" style="enable-background:new 0 0 64 64;" xml:space="preserve">
<style type="text/css">
	.st0{filter:url(#blur);}
	.st1{fill:#FFFFFF;stroke:#91C0F8;stroke-width:0.72;stroke-linejoin:round;stroke-miterlimit:2.4;}
	.st2{fill:#FFFFFF;stroke:#57A0EE;stroke-width:1.2;stroke-linejoin:round;}
	.st3{fill:#00A8FF;}
				#e8jzlygv3knn3_ts {
				animation: e8jzlygv3knn3_ts__ts 5000ms linear infinite normal forwards
			}
			@keyframes e8jzlygv3knn3_ts__ts {
				0% {
					transform: translate(0px,0px) scale(0.800000,1)
				}
				20% {
					transform: translate(0px,0px) scale(0.800000,1)
				}
				30% {
					transform: translate(0px,0px) scale(1.090000,1)
				}
				38% {
					transform: translate(0px,0px) scale(1,1)
				}
				44% {
					transform: translate(0px,0px) scale(1.110000,1)
				}
				64% {
					transform: translate(0px,0px) scale(1.110000,1)
				}
				80% {
					transform: translate(0px,0px) scale(1,1)
				}
				100% {
					transform: translate(0px,0px) scale(0.800000,1)
				}
			}
			#e8jzlygv3knn4_ts {
				animation: e8jzlygv3knn4_ts__ts 5000ms linear infinite normal forwards
			}
			@keyframes e8jzlygv3knn4_ts__ts {
				0% {
					transform: translate(0px,0px) scale(0.800000,1)
				}
				20% {
					transform: translate(0px,0px) scale(0.800000,1)
				}
				30% {
					transform: translate(0px,0px) scale(1.090000,1)
				}
				38% {
					transform: translate(0px,0px) scale(1,1)
				}
				44% {
					transform: translate(0px,0px) scale(1.110000,1)
				}
				64% {
					transform: translate(0px,0px) scale(1.110000,1)
				}
				80% {
					transform: translate(0px,0px) scale(1,1)
				}
				100% {
					transform: translate(0px,0px) scale(0.800000,1)
				}
			}
			#e8jzlygv3knn5_ts {
				animation: e8jzlygv3knn5_ts__ts 5000ms linear infinite normal forwards
			}
			@keyframes e8jzlygv3knn5_ts__ts {
				0% {
					transform: translate(0px,0px) scale(0.800000,1)
				}
				20% {
					transform: translate(0px,0px) scale(0.800000,1)
				}
				30% {
					transform: translate(0px,0px) scale(1.090000,1)
				}
				38% {
					transform: translate(0px,0px) scale(1,1)
				}
				44% {
					transform: translate(0px,0px) scale(1.110000,1)
				}
				64% {
					transform: translate(0px,0px) scale(1.110000,1)
				}
				80% {
					transform: translate(0px,0px) scale(1,1)
				}
				100% {
					transform: translate(0px,0px) scale(0.800000,1)
				}
			}
</style>
<filter  height="200%" id="blur" width="200%">
	<feGaussianBlur  in="SourceAlpha" stdDeviation="3"></feGaussianBlur>
	<feOffset  dx="0" dy="4" result="offsetblur"></feOffset>
	<feComponentTransfer>
		<feFuncA  slope="0.05" type="linear"></feFuncA>
	</feComponentTransfer>
	<feMerge>
		<feMergeNode></feMergeNode>
		<feMergeNode  in="SourceGraphic"></feMergeNode>
	</feMerge>
</filter>
<g id="cloudy" class="st0">
	<g transform="translate(20,10)">
		<g>
			<path class="st1" d="M18.6,13.2c0-2.8-2.2-4.9-4.9-4.9c-0.6,0-1.1,0.1-1.7,0.3c-0.2-2-1.9-3.7-4-3.7c-2.2,0-4,1.8-4,4
				c0,0.5,0.1,1,0.2,1.4c-0.2-0.1-0.4-0.1-0.6-0.1c-2.2,0-4,1.8-4,4c0,2.2,1.7,4,3.9,4h10.3C16.5,18,18.6,15.9,18.6,13.2z"/>
		</g>
		<g>
			<path class="st2" d="M27.7,24.4c0-4.6-3.7-8.2-8.2-8.2c-1,0-1.9,0.2-2.8,0.5c-0.3-3.4-3.1-6.2-6.6-6.2c-3.7,0-6.7,3-6.7,6.7
				c0,0.8,0.2,1.6,0.4,2.3c-0.3-0.1-0.7-0.1-1-0.1c-3.7,0-6.7,3-6.7,6.7c0,3.6,2.9,6.6,6.5,6.7h17.2C24.2,32.3,27.7,28.8,27.7,24.4z
				"/>
		</g>
	</g>
</g>
<g id="e8jzlygv3knn2" transform="matrix(0.90000000000000 0 0 1 0 0)">
	<g id="e8jzlygv3knn3_ts" transform="translate(0,0) scale(0.800000,1)">
		<path id="e8jzlygv3knn3" class="st3" d="M31.9,46.5H20.8c-0.5,0-0.9,0.5-0.9,1.1s0.4,1.1,0.9,1.1h11.1c0.5,0,0.9,0.5,0.9,1.1
			c0,0.6-0.4,1.1-0.9,1.1S31,51.4,31,52s0.4,1.1,0.9,1.1c1.5,0,2.8-1.5,2.8-3.3C34.7,47.9,33.4,46.5,31.9,46.5z"/>
	</g>
	<g id="e8jzlygv3knn4_ts" transform="translate(0,0) scale(0.800000,1)">
		<path id="e8jzlygv3knn4" class="st3" d="M20.8,41.3h16.7c1.5,0,2.8-1.5,2.8-3.3c0-1.8-1.2-3.3-2.8-3.3c-0.5,0-0.9,0.5-0.9,1.1
			s0.4,1.1,0.9,1.1s0.9,0.5,0.9,1.1s-0.4,1.1-0.9,1.1H20.8c-0.5,0-0.9,0.5-0.9,1.1S20.3,41.3,20.8,41.3z"/>
	</g>
	<g id="e8jzlygv3knn5_ts" transform="translate(0,0) scale(0.800000,1)">
		<path id="e8jzlygv3knn5" class="st3" d="M44.9,33.9c-0.5,0-0.9,0.5-0.9,1.1s0.4,1.1,0.9,1.1c1.5,0,2.8,1.5,2.8,3.3
			c0,1.8-1.2,3.3-2.8,3.3H20.8c-0.5,0-0.9,0.5-0.9,1.1s0.4,1.1,0.9,1.1h24.1c2.6,0,4.6-2.5,4.6-5.6C49.5,36.4,47.4,33.9,44.9,33.9z"
			/>
	</g>
</g>
</svg>
