<?xml version="1.0" encoding="utf-8"?>
<!-- Generator: Adobe Illustrator 25.4.1, SVG Export Plug-In . SVG Version: 6.00 Build 0)  -->
<svg version="1.1" id="Layer_1" xmlns="http://www.w3.org/2000/svg" xmlns:xlink="http://www.w3.org/1999/xlink" x="0px" y="0px"
	 viewBox="0 0 100 100" style="enable-background:new 0 0 100 100;" xml:space="preserve">
<style type="text/css">
	.st0{fill:#68736F;}
	.st1{fill:none;stroke:#68736F;stroke-width:10;stroke-dasharray:3,5;}
</style>
<path class="st0" d="M52.9,8.5h-1.4L49.2,5v3.5h-1.4V2.9h1.4l2.3,3.5V2.9h1.4V8.5z"/>
<path class="st0" d="M8.4,46.9l-1.5,5.6H5.3l-0.9-3.7l-0.9,3.7H1.8l-1.4-5.6h1.5L2.6,51l1-4.1h1.5l1,4.1l0.8-4.1H8.4z"/>
<path class="st0" d="M94.1,48v1.1h1.8v1.1h-1.8v1.2h2.1v1.1h-3.4v-5.6h3.4V48H94.1z"/>
<path class="st0" d="M50.4,97.6c-0.4,0-0.8-0.1-1.1-0.2c-0.3-0.1-0.6-0.3-0.8-0.6c-0.2-0.3-0.3-0.6-0.3-0.9h1.5
	c0,0.2,0.1,0.4,0.2,0.5c0.1,0.1,0.3,0.2,0.5,0.2c0.2,0,0.4,0,0.5-0.1c0.1-0.1,0.2-0.2,0.2-0.4c0-0.1,0-0.3-0.1-0.3
	c-0.1-0.1-0.2-0.2-0.3-0.2c-0.1-0.1-0.3-0.1-0.6-0.2c-0.4-0.1-0.7-0.2-0.9-0.3c-0.2-0.1-0.4-0.3-0.6-0.5c-0.2-0.2-0.2-0.5-0.2-0.9
	c0-0.5,0.2-0.9,0.6-1.2c0.4-0.3,0.9-0.4,1.5-0.4c0.6,0,1.1,0.1,1.5,0.4c0.4,0.3,0.6,0.7,0.6,1.2h-1.5c0-0.2-0.1-0.3-0.2-0.4
	c-0.1-0.1-0.3-0.2-0.5-0.2c-0.2,0-0.3,0-0.4,0.1c-0.1,0.1-0.2,0.2-0.2,0.4c0,0.2,0.1,0.3,0.3,0.4c0.2,0.1,0.4,0.2,0.8,0.3
	c0.4,0.1,0.7,0.2,0.9,0.4c0.2,0.1,0.4,0.3,0.6,0.5c0.2,0.2,0.2,0.5,0.2,0.8c0,0.3-0.1,0.6-0.2,0.9c-0.2,0.3-0.4,0.5-0.7,0.6
	C51.2,97.5,50.9,97.6,50.4,97.6z"/>
<circle class="st1" cx="49.9" cy="50" r="34.5"/>
</svg>
