<svg width="16" height="14" viewBox="0 0 16 14" fill="none" xmlns="http://www.w3.org/2000/svg">
<path d="M9.875 11.1777C9.875 12.4152 8.8625 13.4277 7.625 13.4277C6.3875 13.4277 5.375 12.4152 5.375 11.1777H6.875C6.875 11.5902 7.2125 11.9277 7.625 11.9277C8.0375 11.9277 8.375 11.5902 8.375 11.1777C8.375 10.7652 8.0375 10.4277 7.625 10.4277H0.5V8.92773H7.625C8.8625 8.92773 9.875 9.94023 9.875 11.1777ZM13.25 3.30273C13.25 1.85523 12.0725 0.677734 10.625 0.677734C9.1775 0.677734 8 1.85523 8 3.30273H9.5C9.5 2.68023 10.0025 2.17773 10.625 2.17773C11.2475 2.17773 11.75 2.68023 11.75 3.30273C11.75 3.92523 11.2475 4.42773 10.625 4.42773H0.5V5.92773H10.625C12.0725 5.92773 13.25 4.75023 13.25 3.30273ZM12.875 6.67773H0.5V8.17773H12.875C13.4975 8.17773 14 8.68023 14 9.30273C14 9.92523 13.4975 10.4277 12.875 10.4277V11.9277C14.3225 11.9277 15.5 10.7502 15.5 9.30273C15.5 7.85523 14.3225 6.67773 12.875 6.67773Z" fill="white"/>
</svg>
